# xmcd
#
# Track frame offsets:
#	150
#	22632
#	42277
#	63665
#	83117
#	105007
#	123977
#	143765
#	165595
#	185855
#	206422
#	222715
#	240187
#	269437
#	285652
#	306825
#
# Disc length: 4369 seconds
#
# Revision: 7
# Processed by: cddbd v1.5.2PL0 Copyright (c) Steve Scherf et al.
# Submitted via: audiograbber 1.83.01
#
DISCID=dc110f10
DTITLE=Rod Stewart - The Best Of Rod Stewart (22P2-3116)
DYEAR=1989
DGENRE=Classic Rock
TTITLE0=Maggie May
TTITLE1=You Wear It Well
TTITLE2=Baby Jane
TTITLE3=Da Ya Think I'm Sexy?
TTITLE4=I Was Only Joking
TTITLE5=This Old Heart Of Mine
TTITLE6=Sailing
TTITLE7=I Don't Want To Talk About It
TTITLE8=You're In My Heart
TTITLE9=Young Turks
TTITLE10=What Am I Gonna Do
TTITLE11=The First Cut Is The Deepest
TTITLE12=The Killing Of George
TTITLE13=Tonight Is The Night
TTITLE14=Every Beat Of My Heart
TTITLE15=Downtown Train
EXTD=YEAR: 1989
EXTT0=
EXTT1=
EXTT2=
EXTT3=
EXTT4=
EXTT5=
EXTT6=
EXTT7=
EXTT8=
EXTT9=
EXTT10=
EXTT11=
EXTT12=
EXTT13=
EXTT14=
EXTT15=
PLAYORDER=
